# AST/ASF file generated using VICON BodyLanguage
# -----------------------------------------------
:version 1.10
:name VICON
:units
  mass 1.0
  length 0.45
  angle deg
:documentation
   .ast/.asf automatically generated from VICON data using
   VICON BodyBuilder and BodyLanguage model FoxedUp or BRILLIANT.MOD
:root
   order TX TY TZ RX RY RZ
   axis XYZ
   position 0 0 0  
   orientation 0 0 0 
:bonedata
  begin
     id 1 
     name lhipjoint
     direction 0.623529 -0.717805 0.309788 
     length 2.23224 
     axis 0 0 0  XYZ
  end
  begin
     id 2 
     name lfemur
     direction 0.34202 -0.939693 0  
     length 7.11402  
     axis 0 0 20  XYZ
    dof rx ry rz
    limits (-160.0 20.0)
           (-70.0 70.0)
           (-60.0 70.0)
  end
  begin
     id 3 
     name ltibia
     direction 0.34202 -0.939693 0   
     length 6.78496   
     axis 0 0 20   XYZ
    dof rx
    limits (-10.0 170.0)
  end
  begin
     id 4 
     name lfoot
     direction 0.125078 -0.343648 0.930732   
     length 1.84054   
     axis -90 7.62852e-016 20   XYZ
    dof rx rz
    limits (-45.0 90.0)
           (-70.0 20.0)
  end
  begin
     id 5 
     name ltoes
     direction 1.53565e-011 -4.21893e-011 1   
     length 0.916474   
     axis -90 7.62852e-016 20   XYZ
    dof rx
    limits (-90.0 20.0)
  end
  begin
     id 6 
     name rhipjoint
     direction -0.564688 -0.757748 0.327026   
     length 2.11457  
     axis 0 0 0  XYZ 
  end
  begin
     id 7 
     name rfemur
     direction -0.34202 -0.939693 0   
     length 7.14609   
     axis 0 0 -20   XYZ
    dof rx ry rz
    limits (-160.0 20.0)
           (-70.0 70.0)
           (-70.0 60.0)
  end
  begin
     id 8 
     name rtibia
     direction -0.34202 -0.939693 0   
     length 6.78101   
     axis 0 0 -20   XYZ
    dof rx
    limits (-10.0 170.0)
 end
 begin
     id 9 
     name rfoot
     direction -0.0992671 -0.272734 0.956955   
     length 1.96168  
     axis -90 -7.62852e-016 -20   XYZ
    dof rx rz
    limits (-45.0 90.0)
           (-20.0 70.0)
  end
  begin
     id 10 
     name rtoes
     direction -1.5356e-011 -4.21891e-011 1   
     length 0.982933   
     axis -90 -7.62852e-016 -20   XYZ
    dof rx
    limits (-90.0 20.0)
  end
  begin
     id 11 
     name lowerback
     direction -0.00596953 0.998668 0.0512524   
     length 1.87557   
     axis 0 0 0   XYZ
    dof rx ry rz
    limits (-20.0 45.0)
           (-30.0 30.0)
           (-30.0 30.0)
  end
  begin
     id 12 
     name upperback
     direction 0.00584879 0.999652 0.0257308   
     length 1.87883   
     axis 0 0 0   XYZ
    dof rx ry rz
    limits (-20.0 45.0)
           (-30.0 30.0)
           (-30.0 30.0)
  end
  begin
     id 13 
     name thorax
     direction 0.010104 0.999947 0.00178881   
     length 1.87779   
     axis 0 0 0   XYZ
    dof rx ry rz
    limits (-20.0 45.0)
           (-30.0 30.0)
           (-30.0 30.0)
  end
  begin
     id 14 
     name lowerneck
     direction 0.0120771 0.995934 -0.0892773   
     length 1.40897   
     axis 0 0 0   XYZ
    dof rx ry rz
    limits (-20.0 45.0)
           (-30.0 30.0)
           (-30.0 30.0)
  end
  begin
     id 15 
     name upperneck
     direction -0.030568 0.999465 -0.0116366   
     length 1.38661   
     axis 0 0 0   XYZ
    dof rx ry rz
    limits (-20.0 45.0)
           (-30.0 30.0)
           (-30.0 30.0)
  end
  begin
     id 16
     name head
     direction -0.0170715 0.999854 -0.00104426  
     length 1.47052  
     axis 0 0 0   XYZ
    dof rx ry rz
    limits (-20.0 45.0)
           (-30.0 30.0)
           (-30.0 30.0)
  end
  begin
     id 17 
     name lclavicle
     direction 0.977763 0.206143 0.038532  
     length 3.02424  
     axis 0 0 0   XYZ
    dof ry rz
    limits (-20.0 10.0)
           (0.0 20.0)
  end
  begin
     id 18 
     name lhumerus
     direction 1 -4.48965e-011 -2.62654e-027   
     length 4.68382   
     axis 180 -30 -90   XYZ
    dof rx ry rz
    limits (-60.0 90.0)
           (-90.0 90.0)
           (-90.0 90.0)
  end
  begin
     id 19
     name lradius
     direction 1 -4.48973e-011 -1.54954e-027   
     length 2.98124   
     axis 180 -30 -90   XYZ
    dof rx
    limits (-10.0 170.0)
  end
  begin
     id 20
     name lwrist
     direction 1 -4.48959e-011 7.20928e-028   
     length 1.49062   
     axis -5.52449e-016 90 90   XYZ
    dof ry
    limits (-180.0 0.0)
 end
  begin
     id 21 
     name lhand
     direction 1 -4.48971e-011 1.44186e-027   
     length 0.707595   
     axis -9.20027e-016 90 90   XYZ
    dof rx rz
    limits (-90.0 90.0)
           (-45.0 45.0)
  end
  begin
     id 22 
     name lfingers
     direction 1 -4.48985e-011 2.88371e-027   
     length 0.570481   
     axis -1.84005e-015 90 90   XYZ
    dof rx
    limits (0.0 90.0)
  end
  begin
     id 23
     name lthumb
     direction 0.707107 -6.34929e-011 0.707107   
     length 0.819101   
     axis -90 45 2.85299e-015   XYZ
    dof rx rz
    limits (-45.0 45.0)
           (-45.0 45.0)
  end
  begin
     id 24 
     name rclavicle
     direction -0.958661 0.284411 -0.00895327   
     length 3.11921  
     axis 0 0 0   XYZ 
    dof ry rz
    limits (-10.0 20.0)
           (-20.0 0.0)
  end
  begin
     id 25 
     name rhumerus
     direction -1 -4.48963e-011 -4.22193e-027  
     length 4.75876   
     axis 180 30 90   XYZ
    dof rx ry rz
    limits (-90.0 60.0)
           (-90.0 90.0)
           (-90.0 90.0)
  end
  begin
     id 26 
     name rradius
     direction -1 -4.48968e-011 -1.07616e-027   
     length 2.93293   
     axis 180 30 90   XYZ
    dof rx
    limits (-10.0 170.0)
  end
  begin
     id 27 
     name rwrist
     direction -1 -4.48965e-011 7.20928e-028   
     length 1.46647   
     axis -5.52449e-016 -90 -90   XYZ
    dof ry
    limits (-180.0 0.0)
  end
  begin
     id 28
     name rhand
     direction -1 -4.48971e-011 1.44186e-027   
     length 0.831748   
     axis -9.20027e-016 -90 -90   XYZ
    dof rx rz
    limits (-90.0 90.0)
           (-45.0 45.0)
  end
  begin
     id 29
     name rfingers
     direction -1 -4.48961e-011 2.88371e-027   
     length 0.670577   
     axis -1.84005e-015 -90 -90   XYZ
    dof rx
    limits (0.0 90.0)
  end
  begin
     id 30
     name rthumb
     direction -0.707107 -6.34929e-011 0.707107   
     length 0.962818   
     axis -90 -45 -2.85299e-015   XYZ
    dof rx rz
    limits (-45.0 45.0)
           (-45.0 45.0)
  end
:hierarchy
  begin
    root lhipjoint rhipjoint lowerback
    lhipjoint lfemur
    lfemur ltibia
    ltibia lfoot
    lfoot ltoes
    rhipjoint rfemur
    rfemur rtibia
    rtibia rfoot
    rfoot rtoes
    lowerback upperback
    upperback thorax
    thorax lowerneck lclavicle rclavicle
    lowerneck upperneck
    upperneck head
    lclavicle lhumerus
    lhumerus lradius
    lradius lwrist
    lwrist lhand lthumb
    lhand lfingers
    rclavicle rhumerus
    rhumerus rradius
    rradius rwrist
    rwrist rhand rthumb
    rhand rfingers
  end

#!OML:ASF E:\id_vita\Project 1\Capture day 1\Session 1\Female.ASF
:FULLY-SPECIFIED
:DEGREES
151
root 48.1418 16.6492 -0.638308 -147.168 -88.4222 162.112
lowerback -15.9875 -0.0356591 -3.48228
upperback -6.8612 0.0613225 0.305391
thorax 1.65331 -0.0708873 2.29455
lowerneck 6.92545 -3.99463 -7.55409
upperneck 5.48605 -6.23322 7.87758
head 1.08314 -3.32358 3.98717
rclavicle 1.85739e-015 -1.37658e-014
rhumerus -35.6083 39.2481 -109.71
rradius 77.2847
rwrist -5.69765
rhand -3.33733 6.46263
rfingers 7.12502
rthumb 22.3902 -22.2598
lclavicle 1.85739e-015 -1.37658e-014
lhumerus -36.9755 25.5544 77.7944
lradius 16.0463
lwrist -50.9102
lhand 20.4811 24.4161
lfingers 7.12502
lthumb 44.983 47.9223
rfemur -20.2568 16.3416 15.4848
rtibia 21.0122
rfoot -5.08576 -21.8936
rtoes -14.69
lfemur -24.4832 -13.9337 -16.8365
ltibia 27.8597
lfoot -19.0505 8.62404
ltoes 3.70286
152
root 48.1405 16.6479 -0.638798 -147.681 -88.5209 162.662
lowerback -16.0022 -0.0783571 -3.53896
upperback -6.9759 0.0014864 0.370252
thorax 1.54238 -0.0987831 2.38469
lowerneck 7.26778 -4.01354 -7.65479
upperneck 5.39149 -6.28048 7.78669
head 0.996338 -3.35642 3.98579
rclavicle -2.00648e-015 8.29926e-015
rhumerus -36.2386 38.3485 -109.997
rradius 73.5053
rwrist -2.6601
rhand -3.16576 5.897
rfingers 7.12502
rthumb 22.5549 -22.8055
lclavicle -2.00648e-015 8.29926e-015
lhumerus -37.334 25.7898 77.5591
lradius 16.0333
lwrist -50.9664
lhand 20.3647 24.4499
lfingers 7.12502
lthumb 44.8747 47.9986
rfemur -20.2664 16.4491 15.5146
rtibia 20.9763
rfoot -4.94464 -22.0574
rtoes -14.9895
lfemur -24.5533 -13.9407 -16.7592
ltibia 27.8815
lfoot -19.1037 8.57122
ltoes 3.72043
153
root 48.1393 16.6472 -0.639675 -147.73 -88.6154 162.745
lowerback -15.9744 -0.103983 -3.56499
upperback -6.99178 -0.0307438 0.390524
thorax 1.51273 -0.113449 2.41524
lowerneck 7.06612 -4.05176 -7.66182
upperneck 5.42607 -6.31258 7.66347
head 1.04159 -3.3669 3.93679
rclavicle 6.06914e-015 -1.07841e-014
rhumerus -36.3856 36.9526 -109.865
rradius 69.5022
rwrist 0.308887
rhand -2.33642 5.48266
rfingers 7.12502
rthumb 23.3507 -23.121
lclavicle 6.06914e-015 -1.07841e-014
lhumerus -37.3986 26.128 77.3279
lradius 15.9224
lwrist -51.2148
lhand 20.2429 24.5356
lfingers 7.12502
lthumb 44.7613 48.1286
rfemur -20.2668 16.4386 15.5575
rtibia 20.9368
rfoot -4.84599 -22.125
rtoes -15.2723
lfemur -24.6164 -13.9334 -16.705
ltibia 27.9058
lfoot -19.1486 8.51965
ltoes 3.64011
154
root 48.1394 16.6477 -0.639409 -146.021 -88.7033 161.039
lowerback -15.8703 -0.0462617 -3.5535
upperback -6.83885 0.0593646 0.27791
thorax 1.61477 -0.0684796 2.30534
lowerneck 6.20292 -4.20659 -7.44797
upperneck 5.59995 -6.44736 7.55748
head 1.25009 -3.40945 3.82956
rclavicle -1.2424e-015 8.44835e-015
rhumerus -35.3361 35.8959 -109.424
rradius 65.2111
rwrist 2.13125
rhand -1.87634 4.80438
rfingers 7.12502
rthumb 23.792 -23.7425
lclavicle -1.2424e-015 8.44835e-015
lhumerus -36.9474 25.8388 77.5107
lradius 15.975
lwrist -50.8822
lhand 20.4831 24.8259
lfingers 7.12502
lthumb 44.9848 48.3315
rfemur -20.2228 16.3409 15.5753
rtibia 20.8932
rfoot -4.95692 -21.8482
rtoes -14.5783
lfemur -24.6467 -14.0006 -16.6946
ltibia 27.9337
lfoot -19.1326 8.5062
ltoes 3.88626
155
root 48.1394 16.6473 -0.642193 -150.169 -88.5631 165.055
lowerback -15.7487 -0.00349818 -3.55592
upperback -6.7662 0.118304 0.31884
thorax 1.62361 -0.0366382 2.35929
lowerneck 6.15205 -4.2126 -7.67636
upperneck 5.49703 -6.4562 7.60327
head 1.23695 -3.41497 3.88961
rclavicle 9.38015e-016 -6.4605e-016
rhumerus -35.0932 35.2928 -109.48
rradius 61.1561
rwrist 2.52797
rhand -2.3531 3.59347
rfingers 7.12502
rthumb 23.3347 -25.0122
lclavicle 9.38015e-016 -6.4605e-016
lhumerus -36.9317 25.61 77.7045
lradius 16.1764
lwrist -50.2886
lhand 20.8598 25.2723
lfingers 7.12502
lthumb 45.3351 48.6386
rfemur -20.0773 16.3468 15.6606
rtibia 20.8645
rfoot -5.13171 -21.4187
rtoes -13.9354
lfemur -24.4698 -13.9819 -16.6907
ltibia 27.9536
lfoot -19.1209 8.66401
ltoes 4.19556
156
root 48.1391 16.6468 -0.645763 -154.118 -88.401 168.898
lowerback -15.404 -0.46213 -3.15895
upperback -6.96862 -0.570346 0.311674
thorax 1.27265 -0.38486 2.01463
lowerneck 6.46281 -3.65013 -7.74333
upperneck 5.48814 -5.73272 7.63306
head 1.11893 -3.06412 3.92537
rclavicle -1.79527e-015 0
rhumerus -35.6964 35.6651 -111.136
rradius 56.9131
rwrist 1.4329
rhand -2.45138 2.52254
rfingers 7.12502
rthumb 23.2404 -26.0951
lclavicle -1.79527e-015 0
lhumerus -37.8505 26.1839 76.5445
lradius 16.4852
lwrist -49.4221
lhand 20.704 25.2962
lfingers 7.12502
lthumb 45.1904 48.7203
rfemur -19.9876 16.4223 15.7369
rtibia 20.859
rfoot -5.19778 -21.5822
rtoes -14.3463
lfemur -24.3112 -13.8832 -16.6821
ltibia 27.9557
lfoot -19.156 8.80698
ltoes 3.78913
157
root 48.1395 16.6466 -0.642866 -153.526 -88.5413 168.372
lowerback -15.4418 -0.397465 -3.0601
upperback -6.98408 -0.497564 0.269735
thorax 1.27191 -0.351323 1.92646
lowerneck 6.52185 -3.76671 -7.99815
upperneck 5.38001 -5.9046 7.75796
head 1.10194 -3.15436 4.02195
rclavicle -4.84538e-016 -1.68967e-014
rhumerus -34.9723 34.4024 -110.683
rradius 52.3175
rwrist 0.822631
rhand -2.81458 1.74299
rfingers 7.12502
rthumb 22.8919 -26.9182
lclavicle -4.84538e-016 -1.68967e-014
lhumerus -37.8202 26.2864 76.4779
lradius 16.3138
lwrist -49.7877
lhand 20.4243 24.9875
lfingers 7.12502
lthumb 44.9302 48.5146
rfemur -20.0517 16.4071 15.7423
rtibia 20.8681
rfoot -5.16138 -21.9723
rtoes -14.7217
lfemur -24.417 -13.876 -16.6358
ltibia 27.9476
lfoot -19.1624 8.71035
ltoes 3.33388
158
root 48.1339 16.6457 -0.636027 -150.167 -88.7039 164.992
lowerback -15.6137 0.0230962 -3.33127
upperback -6.81182 0.119663 0.143447
thorax 1.50758 -0.0402069 2.04776
lowerneck 6.32585 -4.35917 -7.67057
upperneck 5.26945 -6.64938 7.60219
head 1.14834 -3.51287 3.89456
rclavicle -3.60297e-016 -1.0138e-014
rhumerus -33.1911 31.6331 -108.981
rradius 47.2557
rwrist 0.44159
rhand -3.05746 1.65902
rfingers 7.12502
rthumb 22.6588 -27.0308
lclavicle -3.60297e-016 -1.0138e-014
lhumerus -37.0707 26.0375 77.0059
lradius 15.8745
lwrist -50.774
lhand 20.5429 24.9908
lfingers 7.12502
lthumb 45.0404 48.4744
rfemur -19.9824 16.2976 15.725
rtibia 20.8712
rfoot -5.11197 -22.0216
rtoes -14.7615
lfemur -24.4112 -14.0258 -16.667
ltibia 27.9427
lfoot -19.1336 8.68023
ltoes 3.40688
159
root 48.1365 16.648 -0.634639 -138.951 -88.9629 153.885
lowerback -15.6125 0.00285121 -3.46137
upperback -6.6693 0.127426 0.0886142
thorax 1.65623 -0.0342092 2.06521
lowerneck 5.41061 -4.55905 -7.57123
upperneck 5.49864 -6.84633 7.40393
head 1.38996 -3.58818 3.77331
rclavicle -4.42296e-015 6.55989e-015
rhumerus -31.6476 29.587 -107.949
rradius 42.3166
rwrist -0.187174
rhand -2.57062 2.75491
rfingers 7.12502
rthumb 23.126 -25.8771
lclavicle -4.42296e-015 6.55989e-015
lhumerus -36.6962 25.6551 77.3792
lradius 15.9839
lwrist -50.5435
lhand 20.7665 25.239
lfingers 7.12502
lthumb 45.2485 48.64
rfemur -20.0662 16.3158 15.5934
rtibia 20.8781
rfoot -4.91926 -22.3455
rtoes -14.8446
lfemur -24.5939 -13.9783 -16.7446
ltibia 27.937
lfoot -19.229 8.29907
ltoes 3.4618
160
root 48.1309 16.6477 -0.632058 -137.335 -89.0103 152.217
lowerback -15.597 0.0109003 -3.53824
upperback -6.58712 0.155031 0.141661
thorax 1.73219 -0.0180052 2.16902
lowerneck 5.13617 -4.59619 -7.65853
upperneck 5.46566 -6.86877 7.29718
head 1.42874 -3.59326 3.74439
rclavicle 9.93923e-016 -4.37326e-015
rhumerus -30.7193 27.4158 -107.046
rradius 37.9154
rwrist -0.843309
rhand -3.12215 1.54772
rfingers 7.12502
rthumb 22.5967 -27.1497
lclavicle 9.93923e-016 -4.37326e-015
lhumerus -36.6159 25.799 77.4413
lradius 15.8939
lwrist -50.7076
lhand 20.6397 25.458
lfingers 7.12502
lthumb 45.1306 48.906
rfemur -19.9691 16.336 15.6172
rtibia 20.8733
rfoot -4.86173 -22.4747
rtoes -15.0945
lfemur -24.5123 -13.9944 -16.7728
ltibia 27.9399
lfoot -19.3124 8.2643
ltoes 3.30708
